<svg version="1.1" id="Layer_1" xmlns="http://www.w3.org/2000/svg" xmlns:xlink="http://www.w3.org/1999/xlink" x="0px" y="0px"
	 width="100%" viewBox="0 0 499 499" enable-background="new 0 0 499 499" xml:space="preserve">
<path fill="#8C52FF" opacity="1.000000" stroke="none" 
	d="
M1.000000,488.000000 
	C1.000000,330.309265 1.000000,172.618515 1.248115,14.794134 
	C5.427509,9.944407 8.229994,3.988342 14.993464,2.349491 
	C15.098475,2.324045 15.002292,1.468276 15.000000,1.000000 
	C172.024078,1.000000 329.048157,1.000000 486.198853,1.258993 
	C490.542480,5.133343 494.753693,8.755580 499.001984,12.333766 
	C499.141785,12.451509 499.658813,12.121355 500.000000,11.999999 
	C500.000000,171.024078 500.000000,330.048157 499.773926,489.188141 
	C495.924164,492.533081 492.294769,495.755859 488.704102,499.021210 
	C488.595673,499.119812 488.892212,499.663696 489.000000,500.000000 
	C330.642578,500.000000 172.285172,500.000000 13.800264,499.750397 
	C9.921082,495.671967 6.182227,491.830261 2.387410,488.044678 
	C2.148185,487.806000 1.472578,488.004761 1.000000,488.000000 
M336.033295,158.774139 
	C336.681274,159.638718 337.329254,160.503311 337.977203,161.367889 
	C338.302032,161.130707 338.626831,160.893524 338.951660,160.656342 
	C338.213379,159.584778 337.475098,158.513214 336.357086,156.934677 
	C333.158051,153.490891 332.822113,156.972946 331.214996,158.782974 
	C326.860687,158.660385 331.930054,162.800049 329.134644,163.382538 
	C329.987793,164.364151 330.840912,165.345764 331.298157,165.871857 
	C331.806366,163.449875 332.216125,161.497055 333.039124,159.064285 
	C333.954376,158.778580 334.869629,158.492889 336.033295,158.774139 
M353.575928,135.132126 
	C353.526184,135.957687 353.476410,136.783249 353.426636,137.608795 
	C353.843506,137.576721 354.260376,137.544632 354.677246,137.512558 
	C354.502289,136.298767 354.327362,135.084976 353.798798,133.303497 
	C352.070984,132.164032 350.343170,131.024582 349.015961,130.149323 
	C346.989563,131.792969 345.511017,132.992249 343.866669,134.325989 
	C344.074738,135.179840 344.452942,136.731979 344.789001,138.111176 
	C349.477539,135.855530 348.765808,141.391022 352.012238,143.212067 
	C350.284332,139.094193 348.974548,135.972824 347.664795,132.851456 
	C348.185059,132.578354 348.705322,132.305267 349.225586,132.032181 
	C350.594543,132.890106 351.963531,133.748032 353.575928,135.132126 
M149.298294,79.902733 
	C144.651917,80.117882 139.898148,79.774117 135.377304,80.642670 
	C113.018219,84.938362 97.262550,105.181671 97.350319,128.440918 
	C97.656540,209.593185 97.310791,290.747803 97.305511,371.901550 
	C97.305222,376.365784 97.636192,380.952545 98.679375,385.273102 
	C103.153770,403.804626 118.438789,416.932068 137.018524,420.066681 
	C159.683502,423.890503 178.070923,411.358978 185.796478,397.203186 
	C192.256516,385.366333 198.562744,373.445404 204.922638,361.553955 
	C247.242630,282.426086 289.547852,203.290329 331.919556,124.190147 
	C333.471039,121.293785 335.269867,118.323692 337.627808,116.104477 
	C344.523956,109.613998 355.260742,109.167610 362.993286,114.613800 
	C370.788544,120.104156 373.622925,130.311600 369.286682,139.588028 
	C365.625977,147.419250 361.272522,154.927673 357.199615,162.565063 
	C342.864532,189.445816 328.106934,216.112000 314.331360,243.276321 
	C306.159882,259.389893 306.217743,276.507874 313.596466,293.074799 
	C319.959045,307.360077 327.055664,321.319458 333.876160,335.399506 
	C346.140381,360.717316 358.421295,386.027130 370.739288,411.318817 
	C374.019897,418.054657 378.646271,420.898315 384.833527,420.247650 
	C395.062469,419.171967 400.065948,409.285614 395.225952,399.260895 
	C377.132660,361.785797 359.122284,324.268677 340.698273,286.956207 
	C334.307831,274.014282 334.578949,261.951385 341.476135,249.375259 
	C355.565582,223.685013 369.319214,197.809692 383.090546,171.946381 
	C387.621979,163.436142 392.646149,155.043030 395.925873,146.042786 
	C402.151123,128.959503 398.579834,112.979332 386.648956,99.482002 
	C374.682190,85.944092 359.221313,80.975319 341.466827,84.668488 
	C325.135162,88.065704 314.524170,98.485451 306.791473,112.995636 
	C259.108582,202.471619 211.178268,291.815765 163.298660,381.186829 
	C157.935257,391.198059 149.669266,395.246399 139.856827,392.953186 
	C129.909149,390.628387 124.478699,383.521271 124.485260,371.887665 
	C124.531410,290.067352 124.652962,208.247070 124.830704,126.426956 
	C124.854050,115.679398 133.378433,107.311394 144.234177,106.860306 
	C155.083725,106.409477 164.012466,114.033638 165.141251,124.814362 
	C165.400696,127.292282 165.409866,129.803986 165.411270,132.300201 
	C165.430801,166.794724 165.369522,201.289398 165.471069,235.783630 
	C165.498749,245.187256 170.960144,251.069809 179.065414,251.079224 
	C187.171890,251.088638 192.845352,245.024216 192.861389,235.907715 
	C192.924728,199.913544 193.087952,163.917679 192.818527,127.925423 
	C192.626923,102.328094 174.624847,82.395393 149.298294,79.902733 
M329.907166,179.379852 
	C328.415405,176.616623 326.923645,173.853378 324.831390,169.977829 
	C323.654022,172.565460 322.661316,174.747177 321.668640,176.928894 
	C325.295135,174.830154 326.964386,176.047150 328.119690,179.174911 
	C328.379547,179.878448 329.189911,180.378662 329.746826,180.972473 
	C329.831238,180.661133 329.915649,180.349792 329.907166,179.379852 
z"/>
<path fill="#000000" opacity="1.000000" stroke="none" 
	d="
M14.525873,1.000000 
	C15.002292,1.468276 15.098475,2.324045 14.993464,2.349491 
	C8.229994,3.988342 5.427509,9.944407 1.248115,14.330250 
	C1.000000,9.739966 1.000000,5.479933 1.000000,1.000000 
	C5.349030,1.000000 9.700387,1.000000 14.525873,1.000000 
z"/>
<path fill="#000000" opacity="1.000000" stroke="none" 
	d="
M500.000000,11.517043 
	C499.658813,12.121355 499.141785,12.451509 499.001984,12.333766 
	C494.753693,8.755580 490.542480,5.133343 486.662720,1.258993 
	C491.247406,1.000000 495.494843,1.000000 500.000000,1.000000 
	C500.000000,4.342161 500.000000,7.688124 500.000000,11.517043 
z"/>
<path fill="#000000" opacity="1.000000" stroke="none" 
	d="
M1.000000,488.479187 
	C1.472578,488.004761 2.148185,487.806000 2.387410,488.044678 
	C6.182227,491.830261 9.921082,495.671967 13.336380,499.750397 
	C9.078021,500.000000 5.156042,500.000000 1.000000,500.000000 
	C1.000000,496.321411 1.000000,492.639893 1.000000,488.479187 
z"/>
<path fill="#000000" opacity="1.000000" stroke="none" 
	d="
M489.482941,500.000000 
	C488.892212,499.663696 488.595673,499.119812 488.704102,499.021210 
	C492.294769,495.755859 495.924164,492.533081 499.773926,489.652039 
	C500.000000,493.257568 500.000000,496.515167 500.000000,500.000000 
	C496.657227,500.000000 493.311584,500.000000 489.482941,500.000000 
z"/>
<path fill="#FEFDFF" opacity="1.000000" stroke="none" 
	d="
M149.765869,79.920792 
	C174.624847,82.395393 192.626923,102.328094 192.818527,127.925423 
	C193.087952,163.917679 192.924728,199.913544 192.861389,235.907715 
	C192.845352,245.024216 187.171890,251.088638 179.065414,251.079224 
	C170.960144,251.069809 165.498749,245.187256 165.471069,235.783630 
	C165.369522,201.289398 165.430801,166.794724 165.411270,132.300201 
	C165.409866,129.803986 165.400696,127.292282 165.141251,124.814362 
	C164.012466,114.033638 155.083725,106.409477 144.234177,106.860306 
	C133.378433,107.311394 124.854050,115.679398 124.830704,126.426956 
	C124.652962,208.247070 124.531410,290.067352 124.485260,371.887665 
	C124.478699,383.521271 129.909149,390.628387 139.856827,392.953186 
	C149.669266,395.246399 157.935257,391.198059 163.298660,381.186829 
	C211.178268,291.815765 259.108582,202.471619 306.791473,112.995636 
	C314.524170,98.485451 325.135162,88.065704 341.466827,84.668488 
	C359.221313,80.975319 374.682190,85.944092 386.648956,99.482002 
	C398.579834,112.979332 402.151123,128.959503 395.925873,146.042786 
	C392.646149,155.043030 387.621979,163.436142 383.090546,171.946381 
	C369.319214,197.809692 355.565582,223.685013 341.476135,249.375259 
	C334.578949,261.951385 334.307831,274.014282 340.698273,286.956207 
	C359.122284,324.268677 377.132660,361.785797 395.225952,399.260895 
	C400.065948,409.285614 395.062469,419.171967 384.833527,420.247650 
	C378.646271,420.898315 374.019897,418.054657 370.739288,411.318817 
	C358.421295,386.027130 346.140381,360.717316 333.876160,335.399506 
	C327.055664,321.319458 319.959045,307.360077 313.596466,293.074799 
	C306.217743,276.507874 306.159882,259.389893 314.331360,243.276321 
	C328.106934,216.112000 342.864532,189.445816 357.199615,162.565063 
	C361.272522,154.927673 365.625977,147.419250 369.286682,139.588028 
	C373.622925,130.311600 370.788544,120.104156 362.993286,114.613800 
	C355.260742,109.167610 344.523956,109.613998 337.627808,116.104477 
	C335.269867,118.323692 333.471039,121.293785 331.919556,124.190147 
	C289.547852,203.290329 247.242630,282.426086 204.922638,361.553955 
	C198.562744,373.445404 192.256516,385.366333 185.796478,397.203186 
	C178.070923,411.358978 159.683502,423.890503 137.018524,420.066681 
	C118.438789,416.932068 103.153770,403.804626 98.679375,385.273102 
	C97.636192,380.952545 97.305222,376.365784 97.305511,371.901550 
	C97.310791,290.747803 97.656540,209.593185 97.350319,128.440918 
	C97.262550,105.181671 113.018219,84.938362 135.377304,80.642670 
	C139.898148,79.774117 144.651917,80.117882 149.765869,79.920792 
z"/>
<path fill="#E3D5FF" opacity="1.000000" stroke="none" 
	d="
M353.332520,134.605957 
	C351.963531,133.748032 350.594543,132.890106 349.225586,132.032181 
	C348.705322,132.305267 348.185059,132.578354 347.664795,132.851456 
	C348.974548,135.972824 350.284332,139.094193 352.012238,143.212067 
	C348.765808,141.391022 349.477539,135.855530 344.789001,138.111176 
	C344.452942,136.731979 344.074738,135.179840 343.866669,134.325989 
	C345.511017,132.992249 346.989563,131.792969 349.015961,130.149323 
	C350.343170,131.024582 352.070984,132.164032 353.766541,133.766464 
	C353.600342,134.354935 353.466431,134.480453 353.332520,134.605957 
z"/>
<path fill="#E1D2FF" opacity="1.000000" stroke="none" 
	d="
M329.953613,179.709152 
	C329.915649,180.349792 329.831238,180.661133 329.746826,180.972473 
	C329.189911,180.378662 328.379547,179.878448 328.119690,179.174911 
	C326.964386,176.047150 325.295135,174.830154 321.668640,176.928894 
	C322.661316,174.747177 323.654022,172.565460 324.831390,169.977829 
	C326.923645,173.853378 328.415405,176.616623 329.953613,179.709152 
z"/>
<path fill="#DFCFFF" opacity="1.000000" stroke="none" 
	d="
M332.625916,159.544220 
	C332.216125,161.497055 331.806366,163.449875 331.298157,165.871857 
	C330.840912,165.345764 329.987793,164.364151 329.134644,163.382538 
	C331.930054,162.800049 326.860687,158.660385 331.709961,158.988129 
	C332.345276,159.310272 332.485596,159.427246 332.625916,159.544220 
z"/>
<path fill="#DFCFFF" opacity="1.000000" stroke="none" 
	d="
M332.006622,159.004211 
	C332.822113,156.972946 333.158051,153.490891 336.301788,157.370605 
	C336.092621,157.940079 335.938751,158.073624 335.784882,158.207184 
	C334.869629,158.492889 333.954376,158.778580 332.832520,159.304260 
	C332.485596,159.427246 332.345276,159.310272 332.006622,159.004211 
z"/>
<path fill="#DFCFFF" opacity="1.000000" stroke="none" 
	d="
M336.491669,157.624084 
	C337.475098,158.513214 338.213379,159.584778 338.951660,160.656342 
	C338.626831,160.893524 338.302032,161.130707 337.977203,161.367889 
	C337.329254,160.503311 336.681274,159.638718 335.909088,158.490662 
	C335.938751,158.073624 336.092621,157.940079 336.491669,157.624084 
z"/>
<path fill="#E3D5FF" opacity="1.000000" stroke="none" 
	d="
M353.943329,134.050323 
	C354.327362,135.084976 354.502289,136.298767 354.677246,137.512558 
	C354.260376,137.544632 353.843506,137.576721 353.426636,137.608795 
	C353.476410,136.783249 353.526184,135.957687 353.454224,134.869049 
	C353.466431,134.480453 353.600342,134.354935 353.943329,134.050323 
z"/>
</svg>